<?xml version="1.0" encoding="UTF-8"?>
<svg id="_레이어_2" data-name="레이어 2" xmlns="http://www.w3.org/2000/svg" viewBox="0 0 237.79 288.71">
  <defs>
    <style>
      .cls-1 {
        fill: #7d7d7d;
      }
    </style>
  </defs>
  <g id="Layer_1" data-name="Layer 1">
    <g>
      <path class="cls-1" d="M80.44,25.99c.45.39,1.01.61,1.59.61l51.45-.75.73,25.54.02.79h-44.51c-.96,0-1.81.58-2.19,1.48-.36.91-.14,1.93.57,2.58l3.17,3c.43.41,1.02.65,1.62.65l40.56-.75h.04s.74,51.92.74,51.92v.92s-53.89,0-53.89,0c-1.05,0-1.97.6-2.4,1.57-.41.99-.22,2.07.5,2.81l4.42,4.74c.49.53,1.19.83,1.9.83l78.91-.29,2.5-.42.08-.04h0c-.08,3.39-.48,7.11-4.28,12.01-11.65,15.02-28.67,17.14-28.84,17.16-.9.1-1.56.88-1.5,1.77.06.89.8,1.56,1.72,1.56,23.43-.62,32.06-5.89,38.88-11.25,9.31-7.32,12.17-17,12.08-20.51l32.11-.71c0,3.2.06,31.31.05,32.38-.06,8.59-3.9,25.92-11.32,29.84-.38.2-.66.53-.8.94-.14.46-.07.96.21,1.45l1.17.77h.2l.64-.14c.17-.07,16.85-7.48,22.16-25.83,4.52-15.66,3.04-73.69,2.56-92.76l-.11-4.75c-.02-1.3-.71-2.49-1.85-3.19l-7.92-4.76c-.52-.31-1.14-.48-1.74-.48-.89,0-1.77.36-2.42.99-.63.64-.97,1.49-.97,2.4l.87,53.3v.61s-69.7.75-69.7.75l-.75-52.84h38.87c1.72,0,3.42-.35,5.04-1.03l3.8-1.62c.74-.33,1.27-1.02,1.4-1.85.11-.82-.21-1.62-.85-2.16-1.44-1.15-2.98-2.14-4.58-2.93-1.3-.63-4.69-2.11-8.06-2.11-2.04.18-5.08,2.18-6.57,3.33-.55.43-1.23.67-1.9.67l-26.39.75-.74-26.01v-.32s50.63,0,50.63,0c1.76,0,3.46-.35,5.04-1.03l3.81-1.62c.75-.33,1.28-1.02,1.4-1.85.11-.81-.21-1.62-.86-2.16-1.35-1.1-2.89-2.08-4.58-2.94-1.31-.63-4.7-2.11-8.05-2.11-2.03.18-5.09,2.18-6.58,3.33-.55.43-1.23.67-1.9.67l-38.14.75h-.03s0-7.38,0-7.38c0-.45.11-.87.32-1.21l1.96-3.34c1.29-2.22.57-5.09-1.62-6.39-.62-.37-1.32-.67-2.09-.9-1.02-.29-2.49-.43-4.49-.43-2.25,0-4.28.17-4.85.22-1.82.14-3.2,1.63-3.2,3.48l.75,15.19v.02s-55.36,0-55.36,0c-.97,0-1.84.59-2.18,1.48-.36.92-.14,1.93.57,2.58l3.18,3.02Z"/>
      <path class="cls-1" d="M50.5,69.1l3.13-1.56c.99-.49,1.74-1.32,2.11-2.35l1.23-3.23c.31-.82.2-1.76-.29-2.53-.53-.73-1.36-1.16-2.24-1.16h-11.58c-1.65,0-3.01,1.31-3.08,2.98-.35,9.07-2.54,55.39-11.74,76.91-8.53,19.95-15.99,31.46-27.54,42.45-.65.62-.67,1.58-.04,2.34l.96.54h.26l.86-.26c.09-.06,9.54-5.94,19.27-16.74,9.12-10.16,20.64-27.03,23.76-49.71,4.73-34.63,5.13-44.76,4.93-47.69Z"/>
      <path class="cls-1" d="M53.82,72.16v1.91c0,1.43,1.18,2.6,2.64,2.6t2.78-.5l.72-.16h0c-.05,6.51-.04,39.8,4.95,55.74,6.38,20.32,11.57,26.9,20.8,33.97.51.39,1.12.59,1.75.59,1.39,0,2.59-.98,2.84-2.33l.78-3.89c.09-.44.29-.84.57-1.18l2.15-2.53c.52-.63.78-1.44.69-2.23-.1-.79-.52-1.51-1.17-1.97-3.01-2.27-13.34-10.89-19.64-26.69-4.47-11.18-7.37-31.58-6.61-46.44.03-.36.16-.72.37-1l1.9-2.7c.78-1.1.71-2.59-.17-3.63l-2.35-2.78c-.66-.79-1.64-1.25-2.69-1.25-.73,0-1.44.23-2.05.65l-1.86,1.01-3.71.05c-1.5,0-2.72,1.24-2.72,2.75Z"/>
      <path class="cls-1" d="M237.62,274.07c-.39-.97-1.32-1.62-2.35-1.64l-83.31-1.47-1.33.71h-.02s-.73-63.91-.73-63.91l-.03-.12c12.58-.09,21.02-.48,26.57-1.23,9.99-1.37,26.71-5.91,27.94-6.76.46.51,1.67,1.86,2.57,3.03.21.27.53.8,1.1,1.77l.11.19c.7,1.27,1.38,2.41,2.07,3.48,1.25,1.95,3.12,3.28,5.4,3.87.59.15,1.19.23,1.83.23,2.44,0,4.71-1.21,6.09-3.24,1.37-2.01,1.63-4.45.72-6.71-.73-1.85-2.06-3.62-3.47-4.64-1.81-1.28-2.93-1.79-5.67-3.02-1.24-.55-2.63-1.19-4.47-2.09-1.13-.54-4.1-2.2-10.33-5.72l-.71-.44-1.36-.68-.2-.12-1.08-.64s-.02-.01-.03-.02h0s-.02-.01-.02-.01l-.05.1-.58-.44-1.22.28c-.54.63-.53,1.57,0,2.2l4.19,4.54,1.48,1.31.47.35.13.11.05.06c-3.72.42-13.31,1.49-22.53,2.39-.69.08-11.16.12-31.12.12l-32.2-.03-3.66.3-.41.12-.24.05,57.08-22.21c.29-.11.62-.19,1.87-.19l7.73,1.07c1.05,0,2.13-.25,3.12-.72l1.12-.55c.78-.36,1.34-1.09,1.5-1.94.13-.87-.14-1.74-.72-2.33l-10.24-10.73c-1.42-1.5-3.12-2.27-5.05-2.27-1.49,0-3.11.47-4.93,1.44l-21.19,11.84c-6.74-4.66-9.84-9.72-9.87-9.77-8.03-12.8-.57-21.25-.25-21.61.57-.61.61-1.54.1-2.17-.23-.3-.53-.47-1.37-.47-.2,0-.43,0-.77.05-.12.06-11.87,6.92-10.12,21.87,1.32,11.24,6.21,16.53,8.45,18.37.04.03.09.08.13.11h0s.02.01.02.02l.04-.09h0s.27.3.27.3l.06.03s0,0,0,0l-36.03,19.45-23.75-.04c-1.65,0-3.14.91-3.89,2.37-.74,1.46-.62,3.18.31,4.5l5.92,8.93c.81,1.23,2.17,1.97,3.64,1.97,1.21,0,2.34-.5,3.2-1.4l3.89-4.21c.8-.86,1.93-1.34,3.18-1.34,14.72.5,28.52.75,41.03.75l6.08-.45.11-.03h0s.73,64.05.73,64.05l.03.12h-13.24c-25.62,0-59.81-.06-77.92-.1-1.65,0-3.14.91-3.89,2.38-.75,1.47-.63,3.19.3,4.49l5.91,8.93c.81,1.22,2.17,1.96,3.64,1.96,1.22,0,2.34-.48,3.16-1.35l3.94-3.8c.8-.87,1.92-1.33,3.23-1.33l171.99.46c1.31,0,2.54-.52,3.54-1.49l3.69-4.37c.71-.72.93-1.81.56-2.76Z"/>
      <path class="cls-1" d="M205.87,237.54c-6.66-5.16-35.21-11.82-35.45-11.82,0,0-1.29.91-1.29.91-.34.72-.11,1.59.54,2.07,6.79,4.73,21.38,15.28,23.1,17.74,1.18,1.62,7.32,9.7,12.01,9.99h.14c1.83,0,3.42-1.61,4.37-4.41,1.6-4.63.93-11.1-3.43-14.49Z"/>
      <path class="cls-1" d="M69.96,252.95c.48,0,.96-.11,1.37-.32,6.33-2.94,12.58-6.58,18.6-10.82,8.17-5.78,11.04-6.45,12.49-6.45,2.41,0,4.08-.88,4.58-2.42.51-1.43-.21-2.96-2.03-4.31l-8.04-4.22c-.94-.49-2-.75-3.06-.75-1.97,0-3.82.86-5.07,2.37-4.08,4.9-12.21,14.18-20.82,21.26-1.08.88-1.46,2.23-.99,3.52.46,1.28,1.66,2.14,2.97,2.14Z"/>
    </g>
  </g>
</svg>