<?xml version="1.0" encoding="UTF-8"?>
<svg id="_레이어_2" data-name="레이어 2" xmlns="http://www.w3.org/2000/svg" viewBox="0 0 247.47 301.6">
  <defs>
    <style>
      .cls-1 {
        fill: none;
        stroke: #969696;
        stroke-miterlimit: 10;
      }
    </style>
  </defs>
  <g id="Layer_1" data-name="Layer 1">
    <g>
      <path class="cls-1" d="M211.31,268.37c-.1,0-.2,0-.3-.01-4.53-.3-10.2-6.16-13.68-11.09-.06-.08-.12-.16-.18-.23-.94-1.12-3.3-2.9-10.38-8.14-3.56-2.64-7.99-5.92-12.6-9.45-2.39-1.83-3.43-4.33-2.91-5.55.12-.13.97-.85,5.11-1.11.33-.02.68-.03,1.05-.03,10.04.03,25.94,7.05,36.5,13.05,3.84,2.18,6.25,9.43,3.72,16.76-.22.64-.86,2.28-2.05,3.67-1.22,1.44-2.62,2.13-4.28,2.13Z"/>
      <path class="cls-1" d="M72.45,264.36c-1.71-.01-3.01-.17-3.98-.39-1.55-.35-2.45-1.96-1.92-3.46.49-1.38,1.46-3.38,3.3-6.04,4.56-6.59,8.72-10.06,12.74-13.42,2.76-2.3,5.36-4.47,7.84-7.43,1.66-1.98,4.1-3.12,6.69-3.11,1.4,0,2.8.36,4.05,1.01l8.24,4.37c.27.14.51.29.72.46,3.25,2.52,2.57,5.43,2.28,6.26-.43,1.23-1.22,2.15-2.44,2.81-1.13.61-2.58.95-4.06.95-.49,0-.97.1-1.42.31-3.63,1.72-7.12,3.7-10.36,5.9-2.48,1.69-4.71,3.42-6.67,4.96-4.59,3.58-8.21,6.4-12.49,6.76-.55.05-1.27.07-2.16.06h-.38Z"/>
      <path class="cls-1" d="M49.22,301.1c-2.15,0-4.14-1.08-5.32-2.88,0,0-6.04-9.18-6.05-9.19-1.33-1.95-1.49-4.46-.4-6.56,1.11-2.13,3.29-3.45,5.69-3.44,15.08.08,53.24.27,81.57.36,2.78,0,5.46.02,8.01.02,1.63,0,2.96-1.32,2.97-2.95l.17-55.61c0-1.62-1.3-2.95-2.92-2.97-19.07-.26-37.68-.87-44.75-1.12-.2,0-.38,0-.61.03-.73.08-1.42.42-1.92.96l-3.65,3.92c-1.14,1.22-2.59,1.98-4.1,2.15-.24.03-.49.04-.73.04-2.15,0-4.14-1.08-5.32-2.88,0,0-6.04-9.18-6.05-9.19-1.33-1.95-1.49-4.46-.4-6.56,1.11-2.13,3.29-3.45,5.69-3.44,5.04.03,13.2.07,22.9.12h.12c.49,0,.97-.12,1.4-.35l30.09-16.03c1.41-.75,2.19-2.43,1.63-4.16-.07-.2-.17-.39-.28-.57-2.88-4.7-4.69-10.07-5.36-15.98-1.91-16.75,10.89-24.06,11.44-24.36.55-.31,1.18-.47,1.81-.47,1.16,0,2.17.5,2.85,1.39,1.09,1.43,1.01,3.33-.2,4.62-.06.06-.12.13-.17.2-.34.43-1.54,2.03-2.31,4.49-.15.49-.19,1.02-.09,1.53.38,1.76,1.84,2.8,3.37,2.81.24,0,.48-.02.72-.07,3.94-.83,17.55-4.49,26.99-16.59.99-1.27,1.76-2.47,2.35-3.65.22-.45.36-.94.34-1.45-.05-2.04-1.64-3.43-3.43-3.44l-77.42-.23c-1.14,0-2.23-.48-3.01-1.32l-.36-.39c-.67-.72-1.58-1.1-2.5-1.1-.64,0-1.28.17-1.85.54-1.4.89-1.95,2.65-1.32,4.19,6.32,15.37,16.27,23.68,19.17,25.85,1.07.81,1.77,2.03,1.92,3.37.15,1.34-.27,2.69-1.15,3.71l-1.86,2.17c-.33.38-.55.84-.65,1.34l-.74,3.63c-.29,1.43-1.22,2.68-2.56,3.26-1.84.8-3.74.56-5.17-.54-4.65-3.58-8.48-7.1-12.02-12.6-3.56-5.53-6.62-12.74-9.92-23.36-4.05-13.07-4.88-37.03-5.01-50.15-.02-1.81-1.45-3.3-3.26-3.38-.05,0-.1,0-.15,0-1.75,0-3.23,1.31-3.41,3.07-.92,8.89-2.39,20.57-4.37,34.72-1.55,11.1-6.69,32.62-23.62,52.05-9.49,10.89-18.84,15.04-22.84,16.81-.75.33-1.52.65-2.29.95-.27.11-.51-.22-.32-.45,12.36-15.1,21.58-31.44,27.46-48.68,5.45-15.99,7.56-28.14,9.37-43.73,1.85-16.01,2.53-30.42,2.7-34.45.11-2.74,2.34-4.87,5.08-4.86l11.73.04c1.3,0,2.48.44,3.33,1.23,1.26,1.17,1.8,2.94,1.38,4.6-.11.46-.14.94-.02,1.4.42,1.73,1.86,2.73,3.36,2.73.27,0,.54-.03.8-.09.42-.1.86-.15,1.31-.15.06,0,.12,0,.19,0,1.56.05,3.08.84,4.18,2.14l2.26,2.7c1.44,1.72,1.54,4.2.24,6.04l-1.48,2.09c-.33.46-.52,1-.54,1.57-.4,8.96.52,20.5,2.44,30.81.24,1.27,1.17,2.3,2.41,2.66.31.09.63.14.95.14.94,0,1.85-.38,2.51-1.09.87-.93,2.09-1.46,3.35-1.45l49.83.15c1.64,0,2.96-1.32,2.97-2.95l.13-43.9c0-1.64-1.32-2.96-2.95-2.97l-37.1-.11c-.98,0-1.93-.38-2.64-1.06l-3.38-3.22c-1.3-1.24-1.7-3.11-1.01-4.77.66-1.6,2.35-2.67,4.2-2.67l39.98.12c1.64,0,2.96-1.32,2.97-2.95l.05-16.61c0-1.64-1.32-2.96-2.95-2.97l-48.27-.15c-.98,0-1.93-.38-2.64-1.06l-3.38-3.22c-1.3-1.24-1.7-3.11-1.01-4.77.66-1.6,2.35-2.67,4.2-2.66l51.14.15c1.64,0,2.96-1.32,2.97-2.95l.03-10.82c0-2.82,2.22-5.21,5.03-5.43,1.31-.1,3.27-.23,5.17-.22,2.24,0,3.87.18,5.13.54.94.27,1.81.65,2.61,1.13,3.13,1.89,4.16,6,2.29,9.15l-1.7,2.88c-.27.45-.41.97-.41,1.5v1.33c0,1.64,1.31,2.96,2.95,2.97l33.84.1c.64,0,1.27-.2,1.78-.59,2.73-2.04,5.5-3.35,7.38-3.5.22-.02.45-.03.68-.03,2.77,0,6.26,1.25,8.6,2.42,1.8.89,3.51,2,5.07,3.27,1.57,1.29,2.07,3.49,1.04,5.46-.43.82-1.15,1.44-2,1.81l-4.08,1.73c-1.82.77-3.78,1.17-5.76,1.16l-46.58-.14c-1.64,0-2.96,1.32-2.97,2.95l-.05,16.61c0,1.64,1.32,2.96,2.95,2.97l21.72.07c.64,0,1.26-.2,1.78-.59,2.74-2.04,5.5-3.35,7.38-3.5.22-.02.45-.03.68-.03,2.77,0,6.26,1.25,8.6,2.42,1.8.89,3.5,1.99,5.07,3.27,1.18.97,1.75,2.39,1.54,3.91-.2,1.5-1.26,2.83-2.77,3.47l-3.8,1.62c-1.82.77-3.79,1.17-5.77,1.17l-34.47-.1c-1.64,0-2.96,1.32-2.97,2.95l-.13,43.9c0,1.64,1.32,2.96,2.95,2.97l60.86.18c.2,0,.4,0,.6-.05,1.7-.38,2.75-1.82,2.75-3.37l.03-50.15c0-1.44.56-2.79,1.57-3.8,1.01-1,2.4-1.58,3.82-1.57.97,0,1.93.27,2.77.78l8.13,4.93c1.72,1.04,2.77,2.87,2.8,4.88.02,1.03.05,2.7.1,4.87,1.61,71.39-.94,88.99-3,96.02-3.99,13.62-13.79,21.59-19.22,25.09-.44.28-.81.66-1.05,1.12-.99,1.91-.16,3.98,1.52,4.78,1.7.81,2.98,1.39,4,1.85,2.31,1.04,3.7,1.67,5.78,3.16,1.75,1.25,3.32,3.35,4.21,5.61,1.15,2.93.8,6.09-.96,8.67-1.78,2.6-4.71,4.15-7.85,4.14-.78,0-1.56-.1-2.33-.29l-.19-.05c-2.67-.71-4.98-2.41-6.5-4.79-.85-1.33-1.57-2.59-2.14-3.59l-.02-.04c-.32-.56-.68-1.2-.89-1.52-.63-1.02-1.74-1.61-2.89-1.61-.29,0-.59.04-.89.11-6.18,1.64-17.78,4.55-26.09,5.65-4.72.63-12.61,1.02-23.42,1.16-1.62.02-2.92,1.34-2.92,2.95l-.17,55.08c0,1.87,1.48,3.39,3.35,3.43l83.28,1.74c1.86.04,3.49,1.18,4.15,2.92.62,1.62.28,3.43-.89,4.7-.03.03-.06.07-.09.11l-3.73,4.4c-.08.09-.14.16-.18.2-1.32,1.29-3.07,2-4.92,1.99,0,0-176.74-1-176.74-1-.89,0-1.74.34-2.38.95l-3.86,3.7s-.05.05-.07.07c-1.2,1.22-2.87,1.92-4.58,1.91ZM175.45,183.38c-.42,0-.84.08-1.24.23l-30.82,11.88c-1.54.59-2.43,2.19-2.13,3.81.3,1.62,1.71,2.8,3.35,2.8l8.06.03c25.4.08,30.81.03,31.78-.01.06,0,.13,0,.19-.01,3.76-.35,7.94-.77,12.43-1.24.47-.05.94-.19,1.34-.45,1.7-1.1,2.07-3.17,1.16-4.69-.8-1.34-.63-3.03.41-4.21.69-.78,1.68-1.23,2.72-1.23.68,0,1.35.2,1.93.56l.68.43c.56.36,1.19.53,1.82.53.99,0,1.98-.43,2.65-1.24.31-.37.68-.67,1.1-.89,2.77-1.46,5.56-5.85,7.66-12.05,1.83-5.41,3.04-12.08,3.09-16.99.01-1.29.03-9.83.04-27.71,0-1.63-1.32-2.96-2.95-2.97l-23.79-.07c-1.29,0-2.45.83-2.83,2.06-1.58,5.06-5.1,12.5-12.9,18.58-1.88,1.47-4.19,3.18-7.06,4.76-.65.36-1.17.95-1.4,1.66-.79,2.43.88,4.55,3.03,4.66,2.31.13,4.35,1.11,6.08,2.93l10.51,11.08c1.65,1.74,1.81,4.61-.13,6.56-.35.36-.78.64-1.23.85l-1.18.56c-1.25.6-2.64.91-4.03.91-.46,0-.92-.04-1.37-.11l-6.45-.98c-.17-.03-.34-.04-.51-.04ZM159.71,160.05c-.25,0-.51.03-.77.08-5.02,1.13-10.71,1.83-17.41,2.14-.55.03-1.1.18-1.56.49-1.83,1.25-2.05,3.55-.87,5.05,1.01,1.28,2.72,3.23,5.16,5.31.63.54,1.42.81,2.21.82.55,0,1.11-.13,1.62-.4l13.39-7.13c.83-.44,1.45-1.24,1.6-2.17.39-2.43-1.38-4.17-3.37-4.18Z"/>
    </g>
  </g>
</svg>